# xmcd
#
# Track frame offsets: 
#        150
#        23303
#        36980
#        54058
#        72508
#        85826
#        99882
#        114278
#        130778
#        163839
#        178637
#        196742
#        214774
#
# Disc length: 3073 seconds
#
# Revision: 0
# Processed by: cddbd v1.5.1PL0 Copyright (c) Steve Scherf et al.
# Submitted via: ExactAudioCopy v0.95a5
#
DISCID=9d0bff0d
DTITLE=Kalama Blue - Live @ Blind Melons: Disc 2
DYEAR=2005
DGENRE=Blues
TTITLE0=Mercy, Mercy, Mercy
TTITLE1=In the Basement
TTITLE2=Born Under a Bad Sign
TTITLE3=The Jealous Kind
TTITLE4=I Got the Will
TTITLE5=True Love Is Hard to Find
TTITLE6=I Don't Need No Doctor
TTITLE7=Thin Line
TTITLE8=Give It Up Or Let Me Go
TTITLE9=Shakey Ground
TTITLE10=Love Won't Burn
TTITLE11=Can't Turn You Loose
TTITLE12=Little By Little
EXTD=
EXTT0=
EXTT1=
EXTT2=
EXTT3=
EXTT4=
EXTT5=
EXTT6=
EXTT7=
EXTT8=
EXTT9=
EXTT10=
EXTT11=
EXTT12=
PLAYORDER=
